<mxfile host="app.diagrams.net" modified="2024-04-19T06:57:33.685Z" agent="Mozilla/5.0 (Macintosh; Intel Mac OS X 10_15_7) AppleWebKit/537.36 (KHTML, like Gecko) Chrome/123.0.0.0 Safari/537.36" version="24.2.5" etag="28tOfSJtDE8hgP1P6AWP" type="github">
  <diagram name="第 1 页" id="QQlThuJ3MN2QRlLtmJEH">
    <mxGraphModel>
      <root>
        <mxCell id="0" />
        <mxCell id="1" parent="0" />
      </root>
    </mxGraphModel>
  </diagram>
</mxfile>
